<mxfile host="app.diagrams.net" modified="2021-10-30T14:34:48.902Z" agent="5.0 (Windows)" etag="jOaKTgEtVleBzUc1Wm5r" version="15.6.2" type="github">
  <diagram id="C5RBs43oDa-KdzZeNtuy" name="Page-1">
    <mxGraphModel dx="1185" dy="608" grid="1" gridSize="10" guides="1" tooltips="1" connect="1" arrows="1" fold="1" page="1" pageScale="1" pageWidth="1169" pageHeight="827" math="0" shadow="0">
      <root>
        <mxCell id="WIyWlLk6GJQsqaUBKTNV-0" />
        <mxCell id="WIyWlLk6GJQsqaUBKTNV-1" parent="WIyWlLk6GJQsqaUBKTNV-0" />
        <mxCell id="3_N95yz3iCetGQJ3gYNj-15" value="&lt;b&gt;Dictionary&lt;/b&gt;" style="html=1;" vertex="1" parent="WIyWlLk6GJQsqaUBKTNV-1">
          <mxGeometry x="450" y="170" width="110" height="50" as="geometry" />
        </mxCell>
        <mxCell id="3_N95yz3iCetGQJ3gYNj-0" value="&lt;b&gt;JemEngine&lt;/b&gt;" style="html=1;" vertex="1" parent="WIyWlLk6GJQsqaUBKTNV-1">
          <mxGeometry x="210" y="170" width="110" height="50" as="geometry" />
        </mxCell>
        <mxCell id="3_N95yz3iCetGQJ3gYNj-1" value="&lt;div&gt;&lt;b&gt;ForthEngine&lt;/b&gt;&lt;/div&gt;" style="html=1;" vertex="1" parent="WIyWlLk6GJQsqaUBKTNV-1">
          <mxGeometry x="210" y="300" width="110" height="50" as="geometry" />
        </mxCell>
        <mxCell id="3_N95yz3iCetGQJ3gYNj-2" value="&lt;div&gt;&lt;b&gt;Forth83Engine&lt;/b&gt;&lt;/div&gt;" style="html=1;" vertex="1" parent="WIyWlLk6GJQsqaUBKTNV-1">
          <mxGeometry x="210" y="430" width="110" height="50" as="geometry" />
        </mxCell>
        <mxCell id="3_N95yz3iCetGQJ3gYNj-3" value="" style="endArrow=block;endSize=16;endFill=0;html=1;rounded=0;exitX=0.5;exitY=0;exitDx=0;exitDy=0;entryX=0.5;entryY=1;entryDx=0;entryDy=0;" edge="1" parent="WIyWlLk6GJQsqaUBKTNV-1" source="3_N95yz3iCetGQJ3gYNj-1" target="3_N95yz3iCetGQJ3gYNj-0">
          <mxGeometry width="160" relative="1" as="geometry">
            <mxPoint x="180" y="450" as="sourcePoint" />
            <mxPoint x="340" y="450" as="targetPoint" />
          </mxGeometry>
        </mxCell>
        <mxCell id="3_N95yz3iCetGQJ3gYNj-4" value="" style="endArrow=block;endSize=16;endFill=0;html=1;rounded=0;exitX=0.5;exitY=0;exitDx=0;exitDy=0;entryX=0.5;entryY=1;entryDx=0;entryDy=0;" edge="1" parent="WIyWlLk6GJQsqaUBKTNV-1" source="3_N95yz3iCetGQJ3gYNj-2" target="3_N95yz3iCetGQJ3gYNj-1">
          <mxGeometry width="160" relative="1" as="geometry">
            <mxPoint x="275" y="310" as="sourcePoint" />
            <mxPoint x="275" y="230" as="targetPoint" />
          </mxGeometry>
        </mxCell>
        <mxCell id="3_N95yz3iCetGQJ3gYNj-5" value="&lt;b&gt;IntegerStack&lt;/b&gt;" style="html=1;" vertex="1" parent="WIyWlLk6GJQsqaUBKTNV-1">
          <mxGeometry x="410" y="60" width="110" height="50" as="geometry" />
        </mxCell>
        <mxCell id="3_N95yz3iCetGQJ3gYNj-6" value="stack" style="endArrow=open;endSize=12;dashed=1;html=1;rounded=0;edgeStyle=orthogonalEdgeStyle;" edge="1" parent="WIyWlLk6GJQsqaUBKTNV-1" source="3_N95yz3iCetGQJ3gYNj-0" target="3_N95yz3iCetGQJ3gYNj-5">
          <mxGeometry x="0.2079" y="10" width="160" relative="1" as="geometry">
            <mxPoint x="150" y="450" as="sourcePoint" />
            <mxPoint x="310" y="450" as="targetPoint" />
            <Array as="points">
              <mxPoint x="300" y="100" />
            </Array>
            <mxPoint as="offset" />
          </mxGeometry>
        </mxCell>
        <mxCell id="3_N95yz3iCetGQJ3gYNj-8" value="«interface»&lt;br&gt;&lt;b&gt;Inspectable&lt;/b&gt;" style="html=1;" vertex="1" parent="WIyWlLk6GJQsqaUBKTNV-1">
          <mxGeometry x="30" y="90" width="110" height="50" as="geometry" />
        </mxCell>
        <mxCell id="3_N95yz3iCetGQJ3gYNj-9" value="" style="endArrow=block;dashed=1;endFill=0;endSize=12;html=1;rounded=0;exitX=0.25;exitY=0;exitDx=0;exitDy=0;entryX=1;entryY=0.5;entryDx=0;entryDy=0;edgeStyle=orthogonalEdgeStyle;" edge="1" parent="WIyWlLk6GJQsqaUBKTNV-1" source="3_N95yz3iCetGQJ3gYNj-0" target="3_N95yz3iCetGQJ3gYNj-8">
          <mxGeometry width="160" relative="1" as="geometry">
            <mxPoint x="150" y="450" as="sourcePoint" />
            <mxPoint x="150" y="130" as="targetPoint" />
          </mxGeometry>
        </mxCell>
        <mxCell id="3_N95yz3iCetGQJ3gYNj-11" value="I/O" style="text;html=1;strokeColor=none;fillColor=none;align=center;verticalAlign=middle;whiteSpace=wrap;rounded=0;" vertex="1" parent="WIyWlLk6GJQsqaUBKTNV-1">
          <mxGeometry x="150" y="170" width="60" height="30" as="geometry" />
        </mxCell>
        <mxCell id="3_N95yz3iCetGQJ3gYNj-10" value="" style="html=1;verticalAlign=bottom;labelBackgroundColor=none;endArrow=halfCircle;endFill=0;endSize=2;rounded=0;exitX=0;exitY=0.5;exitDx=0;exitDy=0;" edge="1" parent="WIyWlLk6GJQsqaUBKTNV-1" source="3_N95yz3iCetGQJ3gYNj-0">
          <mxGeometry width="160" relative="1" as="geometry">
            <mxPoint x="160" y="195" as="sourcePoint" />
            <mxPoint x="150" y="195" as="targetPoint" />
          </mxGeometry>
        </mxCell>
        <mxCell id="3_N95yz3iCetGQJ3gYNj-13" value="File access" style="text;html=1;strokeColor=none;fillColor=none;align=center;verticalAlign=middle;whiteSpace=wrap;rounded=0;" vertex="1" parent="WIyWlLk6GJQsqaUBKTNV-1">
          <mxGeometry x="130" y="430" width="80" height="30" as="geometry" />
        </mxCell>
        <mxCell id="3_N95yz3iCetGQJ3gYNj-14" value="" style="html=1;verticalAlign=bottom;labelBackgroundColor=none;endArrow=halfCircle;endFill=0;endSize=2;rounded=0;exitX=1;exitY=1;exitDx=0;exitDy=0;entryX=0;entryY=1;entryDx=0;entryDy=0;" edge="1" parent="WIyWlLk6GJQsqaUBKTNV-1" source="3_N95yz3iCetGQJ3gYNj-13" target="3_N95yz3iCetGQJ3gYNj-13">
          <mxGeometry width="160" relative="1" as="geometry">
            <mxPoint x="220" y="205" as="sourcePoint" />
            <mxPoint x="160" y="205" as="targetPoint" />
          </mxGeometry>
        </mxCell>
        <mxCell id="3_N95yz3iCetGQJ3gYNj-16" value="" style="endArrow=open;endSize=12;dashed=1;html=1;rounded=0;entryX=0;entryY=0.5;entryDx=0;entryDy=0;edgeStyle=orthogonalEdgeStyle;exitX=1;exitY=0.5;exitDx=0;exitDy=0;" edge="1" parent="WIyWlLk6GJQsqaUBKTNV-1" source="3_N95yz3iCetGQJ3gYNj-0" target="3_N95yz3iCetGQJ3gYNj-15">
          <mxGeometry width="160" relative="1" as="geometry">
            <mxPoint x="390" y="260" as="sourcePoint" />
            <mxPoint x="370" y="135" as="targetPoint" />
          </mxGeometry>
        </mxCell>
        <mxCell id="3_N95yz3iCetGQJ3gYNj-17" value="&lt;b&gt;SearchResolver&lt;/b&gt;" style="html=1;" vertex="1" parent="WIyWlLk6GJQsqaUBKTNV-1">
          <mxGeometry x="420" y="352.5" width="110" height="50" as="geometry" />
        </mxCell>
        <mxCell id="3_N95yz3iCetGQJ3gYNj-18" value="" style="endArrow=open;endSize=12;dashed=1;html=1;rounded=0;edgeStyle=orthogonalEdgeStyle;exitX=0.25;exitY=1;exitDx=0;exitDy=0;" edge="1" parent="WIyWlLk6GJQsqaUBKTNV-1" source="3_N95yz3iCetGQJ3gYNj-15" target="3_N95yz3iCetGQJ3gYNj-17">
          <mxGeometry width="160" relative="1" as="geometry">
            <mxPoint x="330" y="205" as="sourcePoint" />
            <mxPoint x="460" y="205" as="targetPoint" />
            <Array as="points">
              <mxPoint x="475" y="220" />
            </Array>
          </mxGeometry>
        </mxCell>
        <mxCell id="3_N95yz3iCetGQJ3gYNj-19" value="&lt;b&gt;MemoryMapper&lt;/b&gt;" style="html=1;" vertex="1" parent="WIyWlLk6GJQsqaUBKTNV-1">
          <mxGeometry x="510" y="280" width="110" height="50" as="geometry" />
        </mxCell>
        <mxCell id="3_N95yz3iCetGQJ3gYNj-21" value="&lt;b&gt;Word&lt;/b&gt;" style="html=1;" vertex="1" parent="WIyWlLk6GJQsqaUBKTNV-1">
          <mxGeometry x="720" y="170" width="160" height="50" as="geometry" />
        </mxCell>
        <mxCell id="3_N95yz3iCetGQJ3gYNj-22" value="return stack" style="endArrow=open;endSize=12;dashed=1;html=1;rounded=0;edgeStyle=orthogonalEdgeStyle;" edge="1" parent="WIyWlLk6GJQsqaUBKTNV-1" source="3_N95yz3iCetGQJ3gYNj-0" target="3_N95yz3iCetGQJ3gYNj-5">
          <mxGeometry x="0.322" y="14" width="160" relative="1" as="geometry">
            <mxPoint x="270" y="170" as="sourcePoint" />
            <mxPoint x="370" y="149.99999999999994" as="targetPoint" />
            <Array as="points">
              <mxPoint x="270" y="74" />
            </Array>
            <mxPoint as="offset" />
          </mxGeometry>
        </mxCell>
        <mxCell id="3_N95yz3iCetGQJ3gYNj-24" value="&lt;div&gt;memory&lt;/div&gt;" style="endArrow=open;html=1;endSize=12;startArrow=diamondThin;startSize=14;startFill=0;edgeStyle=orthogonalEdgeStyle;align=left;verticalAlign=bottom;rounded=0;exitX=1;exitY=0.25;exitDx=0;exitDy=0;entryX=0;entryY=0.25;entryDx=0;entryDy=0;" edge="1" parent="WIyWlLk6GJQsqaUBKTNV-1" source="3_N95yz3iCetGQJ3gYNj-15" target="3_N95yz3iCetGQJ3gYNj-21">
          <mxGeometry x="-0.25" relative="1" as="geometry">
            <mxPoint x="580" y="220" as="sourcePoint" />
            <mxPoint x="740" y="220" as="targetPoint" />
            <mxPoint as="offset" />
          </mxGeometry>
        </mxCell>
        <mxCell id="3_N95yz3iCetGQJ3gYNj-25" value="token" style="endArrow=open;html=1;endSize=12;startArrow=diamondThin;startSize=14;startFill=0;edgeStyle=orthogonalEdgeStyle;align=left;verticalAlign=bottom;rounded=0;exitX=1;exitY=0.75;exitDx=0;exitDy=0;entryX=0;entryY=0.75;entryDx=0;entryDy=0;" edge="1" parent="WIyWlLk6GJQsqaUBKTNV-1" source="3_N95yz3iCetGQJ3gYNj-15" target="3_N95yz3iCetGQJ3gYNj-21">
          <mxGeometry x="-0.25" relative="1" as="geometry">
            <mxPoint x="570" y="192.5" as="sourcePoint" />
            <mxPoint x="710" y="208" as="targetPoint" />
            <mxPoint as="offset" />
          </mxGeometry>
        </mxCell>
        <mxCell id="3_N95yz3iCetGQJ3gYNj-26" value="&lt;b&gt;StringWord&lt;/b&gt;" style="html=1;" vertex="1" parent="WIyWlLk6GJQsqaUBKTNV-1">
          <mxGeometry x="900" y="360" width="110" height="20" as="geometry" />
        </mxCell>
        <mxCell id="3_N95yz3iCetGQJ3gYNj-28" value="&lt;b&gt;ConstantWord&lt;/b&gt;" style="html=1;" vertex="1" parent="WIyWlLk6GJQsqaUBKTNV-1">
          <mxGeometry x="900" y="330" width="110" height="20" as="geometry" />
        </mxCell>
        <mxCell id="3_N95yz3iCetGQJ3gYNj-29" value="&lt;b&gt;ColonWord&lt;/b&gt;" style="html=1;" vertex="1" parent="WIyWlLk6GJQsqaUBKTNV-1">
          <mxGeometry x="900" y="170" width="110" height="20" as="geometry" />
        </mxCell>
        <mxCell id="3_N95yz3iCetGQJ3gYNj-30" value="&lt;div&gt;&lt;b&gt;CellListWord&lt;/b&gt;&lt;/div&gt;" style="html=1;" vertex="1" parent="WIyWlLk6GJQsqaUBKTNV-1">
          <mxGeometry x="900" y="240" width="110" height="20" as="geometry" />
        </mxCell>
        <mxCell id="3_N95yz3iCetGQJ3gYNj-31" value="&lt;div&gt;&lt;b&gt;UserVariableWord&lt;/b&gt;&lt;/div&gt;" style="html=1;" vertex="1" parent="WIyWlLk6GJQsqaUBKTNV-1">
          <mxGeometry x="900" y="270" width="110" height="20" as="geometry" />
        </mxCell>
        <mxCell id="3_N95yz3iCetGQJ3gYNj-32" value="&lt;b&gt;VariableWord&lt;/b&gt;" style="html=1;" vertex="1" parent="WIyWlLk6GJQsqaUBKTNV-1">
          <mxGeometry x="900" y="300" width="110" height="20" as="geometry" />
        </mxCell>
        <mxCell id="3_N95yz3iCetGQJ3gYNj-33" value="&lt;b&gt;InternalWord&lt;/b&gt;" style="html=1;" vertex="1" parent="WIyWlLk6GJQsqaUBKTNV-1">
          <mxGeometry x="900" y="390" width="110" height="20" as="geometry" />
        </mxCell>
        <mxCell id="3_N95yz3iCetGQJ3gYNj-35" value="" style="endArrow=block;endSize=16;endFill=0;html=1;rounded=0;edgeStyle=orthogonalEdgeStyle;exitX=0;exitY=0.5;exitDx=0;exitDy=0;" edge="1" parent="WIyWlLk6GJQsqaUBKTNV-1" source="3_N95yz3iCetGQJ3gYNj-30" target="3_N95yz3iCetGQJ3gYNj-21">
          <mxGeometry width="160" relative="1" as="geometry">
            <mxPoint x="818" y="250" as="sourcePoint" />
            <mxPoint x="825" y="230" as="targetPoint" />
            <Array as="points">
              <mxPoint x="870" y="250" />
            </Array>
          </mxGeometry>
        </mxCell>
        <mxCell id="3_N95yz3iCetGQJ3gYNj-36" value="" style="endArrow=block;endSize=16;endFill=0;html=1;rounded=0;edgeStyle=orthogonalEdgeStyle;exitX=0;exitY=0.5;exitDx=0;exitDy=0;entryX=0.827;entryY=0.986;entryDx=0;entryDy=0;entryPerimeter=0;" edge="1" parent="WIyWlLk6GJQsqaUBKTNV-1" source="3_N95yz3iCetGQJ3gYNj-31" target="3_N95yz3iCetGQJ3gYNj-21">
          <mxGeometry width="160" relative="1" as="geometry">
            <mxPoint x="888.3300000000004" y="319.75" as="sourcePoint" />
            <mxPoint x="780" y="220" as="targetPoint" />
            <Array as="points">
              <mxPoint x="852" y="280" />
            </Array>
          </mxGeometry>
        </mxCell>
        <mxCell id="3_N95yz3iCetGQJ3gYNj-37" value="" style="endArrow=block;endSize=16;endFill=0;html=1;rounded=0;edgeStyle=orthogonalEdgeStyle;" edge="1" parent="WIyWlLk6GJQsqaUBKTNV-1" source="3_N95yz3iCetGQJ3gYNj-32" target="3_N95yz3iCetGQJ3gYNj-21">
          <mxGeometry width="160" relative="1" as="geometry">
            <mxPoint x="840" y="350" as="sourcePoint" />
            <mxPoint x="790" y="230" as="targetPoint" />
            <Array as="points">
              <mxPoint x="830" y="310" />
            </Array>
          </mxGeometry>
        </mxCell>
        <mxCell id="3_N95yz3iCetGQJ3gYNj-38" value="" style="endArrow=block;endSize=16;endFill=0;html=1;rounded=0;edgeStyle=orthogonalEdgeStyle;exitX=0;exitY=0.448;exitDx=0;exitDy=0;exitPerimeter=0;" edge="1" parent="WIyWlLk6GJQsqaUBKTNV-1" source="3_N95yz3iCetGQJ3gYNj-28" target="3_N95yz3iCetGQJ3gYNj-21">
          <mxGeometry width="160" relative="1" as="geometry">
            <mxPoint x="888.3300000000004" y="430" as="sourcePoint" />
            <mxPoint x="796" y="230" as="targetPoint" />
            <Array as="points">
              <mxPoint x="810" y="339" />
            </Array>
          </mxGeometry>
        </mxCell>
        <mxCell id="3_N95yz3iCetGQJ3gYNj-39" value="" style="endArrow=block;endSize=16;endFill=0;html=1;rounded=0;edgeStyle=orthogonalEdgeStyle;exitX=0;exitY=0.5;exitDx=0;exitDy=0;entryX=0.439;entryY=0.988;entryDx=0;entryDy=0;entryPerimeter=0;" edge="1" parent="WIyWlLk6GJQsqaUBKTNV-1" source="3_N95yz3iCetGQJ3gYNj-26" target="3_N95yz3iCetGQJ3gYNj-21">
          <mxGeometry width="160" relative="1" as="geometry">
            <mxPoint x="878.3300000000004" y="360" as="sourcePoint" />
            <mxPoint x="790" y="230" as="targetPoint" />
            <Array as="points">
              <mxPoint x="790" y="370" />
            </Array>
          </mxGeometry>
        </mxCell>
        <mxCell id="3_N95yz3iCetGQJ3gYNj-40" value="" style="endArrow=block;endSize=16;endFill=0;html=1;rounded=0;edgeStyle=orthogonalEdgeStyle;entryX=0.179;entryY=1.003;entryDx=0;entryDy=0;entryPerimeter=0;" edge="1" parent="WIyWlLk6GJQsqaUBKTNV-1" source="3_N95yz3iCetGQJ3gYNj-42" target="3_N95yz3iCetGQJ3gYNj-21">
          <mxGeometry width="160" relative="1" as="geometry">
            <mxPoint x="733" y="350" as="sourcePoint" />
            <mxPoint x="749" y="250" as="targetPoint" />
            <Array as="points">
              <mxPoint x="733" y="320" />
              <mxPoint x="749" y="320" />
            </Array>
          </mxGeometry>
        </mxCell>
        <mxCell id="3_N95yz3iCetGQJ3gYNj-41" value="" style="endArrow=none;endSize=16;endFill=0;html=1;rounded=0;edgeStyle=orthogonalEdgeStyle;entryX=0.5;entryY=1;entryDx=0;entryDy=0;exitX=0.5;exitY=0;exitDx=0;exitDy=0;startArrow=block;startFill=0;" edge="1" parent="WIyWlLk6GJQsqaUBKTNV-1" source="3_N95yz3iCetGQJ3gYNj-30" target="3_N95yz3iCetGQJ3gYNj-29">
          <mxGeometry width="160" relative="1" as="geometry">
            <mxPoint x="828" y="260" as="sourcePoint" />
            <mxPoint x="828.45" y="230.39999999999998" as="targetPoint" />
            <Array as="points" />
          </mxGeometry>
        </mxCell>
        <mxCell id="3_N95yz3iCetGQJ3gYNj-42" value="&lt;b&gt;VocabularyWord&lt;/b&gt;" style="html=1;" vertex="1" parent="WIyWlLk6GJQsqaUBKTNV-1">
          <mxGeometry x="650" y="365" width="110" height="25" as="geometry" />
        </mxCell>
        <mxCell id="3_N95yz3iCetGQJ3gYNj-43" value="" style="endArrow=block;endSize=16;endFill=0;html=1;rounded=0;edgeStyle=orthogonalEdgeStyle;exitX=0;exitY=0.5;exitDx=0;exitDy=0;" edge="1" parent="WIyWlLk6GJQsqaUBKTNV-1" source="3_N95yz3iCetGQJ3gYNj-33" target="3_N95yz3iCetGQJ3gYNj-21">
          <mxGeometry width="160" relative="1" as="geometry">
            <mxPoint x="860" y="430" as="sourcePoint" />
            <mxPoint x="770" y="270" as="targetPoint" />
            <Array as="points">
              <mxPoint x="770" y="400" />
            </Array>
          </mxGeometry>
        </mxCell>
        <mxCell id="3_N95yz3iCetGQJ3gYNj-44" value="" style="endArrow=open;endSize=12;dashed=1;html=1;rounded=0;edgeStyle=orthogonalEdgeStyle;exitX=0.75;exitY=1;exitDx=0;exitDy=0;entryX=0.196;entryY=0.031;entryDx=0;entryDy=0;entryPerimeter=0;" edge="1" parent="WIyWlLk6GJQsqaUBKTNV-1" source="3_N95yz3iCetGQJ3gYNj-15" target="3_N95yz3iCetGQJ3gYNj-19">
          <mxGeometry width="160" relative="1" as="geometry">
            <mxPoint x="330" y="205" as="sourcePoint" />
            <mxPoint x="530" y="260" as="targetPoint" />
          </mxGeometry>
        </mxCell>
        <mxCell id="3_N95yz3iCetGQJ3gYNj-45" value="" style="endArrow=open;html=1;endSize=12;startArrow=diamondThin;startSize=14;startFill=0;edgeStyle=orthogonalEdgeStyle;align=left;verticalAlign=bottom;rounded=0;exitX=0.461;exitY=0.019;exitDx=0;exitDy=0;exitPerimeter=0;entryX=0.056;entryY=0.976;entryDx=0;entryDy=0;entryPerimeter=0;" edge="1" parent="WIyWlLk6GJQsqaUBKTNV-1" source="3_N95yz3iCetGQJ3gYNj-42" target="3_N95yz3iCetGQJ3gYNj-21">
          <mxGeometry x="-0.25" relative="1" as="geometry">
            <mxPoint x="741" y="400" as="sourcePoint" />
            <mxPoint x="727" y="250" as="targetPoint" />
            <mxPoint as="offset" />
            <Array as="points">
              <mxPoint x="701" y="290" />
              <mxPoint x="729" y="290" />
            </Array>
          </mxGeometry>
        </mxCell>
        <mxCell id="3_N95yz3iCetGQJ3gYNj-46" value="" style="endArrow=open;html=1;endSize=12;startArrow=diamondThin;startSize=14;startFill=0;edgeStyle=orthogonalEdgeStyle;align=left;verticalAlign=bottom;rounded=0;entryX=0;entryY=0.5;entryDx=0;entryDy=0;exitX=1;exitY=0.5;exitDx=0;exitDy=0;" edge="1" parent="WIyWlLk6GJQsqaUBKTNV-1" source="3_N95yz3iCetGQJ3gYNj-17" target="3_N95yz3iCetGQJ3gYNj-42">
          <mxGeometry x="-0.25" relative="1" as="geometry">
            <mxPoint x="540" y="378" as="sourcePoint" />
            <mxPoint x="640" y="455" as="targetPoint" />
            <mxPoint as="offset" />
            <Array as="points" />
          </mxGeometry>
        </mxCell>
      </root>
    </mxGraphModel>
  </diagram>
</mxfile>
